# xmcd
#
# Track frame offsets:
#	150
#	23176
#	36156
#	53273
#	69185
#	78567
#	94124
#	109121
#	129899
#	137802
#	153256
#
# Disc length: 2248 seconds
#
# Revision: 0
# Processed by: cddbd v1.5.2PL0 Copyright (c) Steve Scherf et al.
# Submitted via: EasyCDDAExtractor 16.0.6.1
#
DISCID=7f08c60b
DTITLE=Marshall Monrad Band - The Marshall Plan
DYEAR=2010
DGENRE=
TTITLE0=Lonesome Road Blues
TTITLE1=Stay At Home And Drink
TTITLE2=48 Hours Ago
TTITLE3=Shine On
TTITLE4=Swamp Ride
TTITLE5=Damn That Woman
TTITLE6=Mountain Home
TTITLE7=Ragged And Dirty
TTITLE8=The Marshall Plan
TTITLE9=Wreck On The Highway
TTITLE10=Beyond Now
EXTD=
EXTT0=
EXTT1=
EXTT2=
EXTT3=
EXTT4=
EXTT5=
EXTT6=
EXTT7=
EXTT8=
EXTT9=
EXTT10=
PLAYORDER=
